<?xml version="1.0" encoding="utf-8"?>
<!-- Generator: Adobe Illustrator 21.0.0, SVG Export Plug-In . SVG Version: 6.00 Build 0)  -->
<svg version="1.1" id="图层_1" xmlns="http://www.w3.org/2000/svg" xmlns:xlink="http://www.w3.org/1999/xlink" x="0px" y="0px"
	 viewBox="0 0 464.1 463.9" style="enable-background:new 0 0 464.1 463.9;" xml:space="preserve">
<style type="text/css">
	.st0{opacity:0.2;}
	.st1{fill-rule:evenodd;clip-rule:evenodd;fill:#FFFFFF;}
</style>
<g class="st0">
	
		<image style="overflow:visible;" width="2234" height="2234" xlink:href="3CB0DFB9.png"  transform="matrix(0.24 0 0 0.24 -36 -36)">
	</image>
</g>
<g>
	
		<image style="overflow:visible;opacity:0.75;" width="2059" height="2059" xlink:href="3CB0DFBB.png"  transform="matrix(0.24 0 0 0.24 -15 -15)">
	</image>
	<g>
		<path class="st1" d="M378.1,100.1c2.6,1,4.1,3.7,6.7,1.7c0.8-0.6,2.2-2.7,2.4-3.7c0.5-1.5,0.3-2.2-0.5-3c-1.5-0.8-2.2-1.6-1.2-2.8
			c1.3-1.7,2.7-4.5,0-5.5c-1.5-0.6-1.9-1-3.1-1c-2.1,1.2-4,2.9-5.6,3.8c-1.2,0.7-1.4,1.4-3,0.6c-1.6-0.8-3.8,1.4-5.7-1.5
			c-0.8-1.3-1.7-1.4-2.5,0.2c-1,2-0.4,3.6-0.6,5.6c-1.8,1.1-4-0.4-6.1-1.1c-0.7-0.2-1.3-0.3-1.6,0.1c-0.4,0.5,0.1,1.3-0.7,1.4
			c-0.7,0.1-1.5-1.1-2.1-0.6c-0.8,0.7,0.4,2,0.9,2.5c1.8,1.3,2.9,2.9,4,3.4c3.5,1.6,6.9,0.1,8.8,0c0.2,0.1,0.4,0.5,0.8,0.8
			c-0.8,3.6-1.9,2.8-1.6,7.5c0.1,2.4,1.6,6.1,3,8.1l1.7,2.3c0.7,1,1.7,1.6,2.8,1.8c1.8,0.4,1.6-0.7,2.4-1.8c1.7-2.3,2.5-2.7,1.1-5.9
			c-1.2-2.7-3.4-9.6-1.1-12.4L378.1,100.1z M191.2,27.4l-0.2-0.7c-1.1-3.5-5.2-3-7.9-2.5c-1.7,0.3-0.8-1.4-1.1-2.6
			c-0.2-0.9-1.8-1.9-2.8-2.9c-0.5-0.5-0.4-0.7-1.1-0.5c-0.9,0.3-1.8,0.7-2.2,1.7c1.3,1.5,2,3.5,2.5,5.6c0.3,1.1,0.1,1-1,1.5
			c-1.1,0.5-1,0.6-1.7-0.3c-0.9-1-2-2.2-3.1-1.6l0.1,1c0.1,0.5,0.4,0.6,0.6,1.5l0.3,1.3c0.7,2.6-2.1,1.9-1.4,6.5
			c0.1,0.4,0.5,0.8,0.2,1.2c-0.2,0.4-0.7-0.2-1-0.4c-0.6-0.4-1.2-1.2-2-1.7c-0.8-0.5-0.8-0.4-1.3,0.2c1.2,4.6,7.8,7.8,8.6,9.3
			c-0.9,1.3-2.8,1.6-4,3.2c-0.1,0.4,0.1,0.9,0.2,1.5c0.1,0.6,0.9,1.6,1.6,2.4c0.9,1.1,1,0.8,2.4,0.3c0.7-0.2,1.5-0.9,1.6,0
			c0.4,4.1-4.1,12.5-3.5,15.1c0.2,0.8,0.9,1.1,0.8,2c-0.1,1.1,0,0.9,1.1,0.8l0.2-0.1c3.9-1,3.8-9.2,5.1-10.7
			c0.7,2.7-0.5,2.1,1.5,4.8c0.8,1.2,1.5,1.8,2.6,2.4c0.5,0.2,0.7,0.4,1.3,0.2c0.2,0,0.3-0.1,0.5-0.1c0.5-0.1,0.9-0.2,1.3-0.5
			c0.7-0.5,1.5-1.3,2.4-2c1.4-1.1,1.9-3.3,2.5-4.5c0.2-0.4,0.3-1,0.6-1.3c0.2-0.3,0.5-0.3,0.6,0.1c0.5,1.1,0.6,2.7,1.9,2.9
			c1.1,0.2,2.5,0.2,3.3,0l0.9-0.2c1.4-0.3,1.8-1.1,1.5-2.4l-0.2-0.6c-0.9-3.8-5.6-3.8-8.6-4.3c0.7-1.9,1.9-2.5,2.2-4.1
			c0.2-1.1,0.1-1.8-0.9-2.3l-1.1-0.6c-0.4-0.2-0.7-0.1-0.7-0.6c0-0.1,0.1-0.5,0.1-0.6c-0.1-1.1-0.5-2.2-1.9-2.1
			c-0.5,0-0.6,0.1-0.4-0.3c0.1-0.3,0.3-0.8,0.3-0.9c-0.1-0.2-0.3-0.3-0.5-0.4c-1.3-0.6-3.1,0.7-3.3-0.2c1.8-1.6,3.5-2.4,4.6-4.8
			c0.1-0.3,0.1-0.4,0-0.8c-0.1-0.5-0.3-0.6-0.8-1c-0.3-0.2-0.5-0.4-0.8-0.6c-0.4-0.3-0.4-0.6-0.4-1.2
			C190.8,30.5,191.6,28.8,191.2,27.4z M183.7,27.8c0.5,0.1,1.4,0,1.8,0.4c0.8,0.7,1,2.2,0.3,3c-0.4,0.5-1.1,1-1,0.3
			c0-0.2,0.4-0.8,0.5-1.1c-0.2-0.9-0.5-1-1.2-1.2c-0.5-0.2-0.5,0-0.8-0.8C183.1,27.9,183,27.7,183.7,27.8z M175.7,33.3l-0.4,1.3
			c-0.1,0.6,0.1,1,0.8,1.5c0.5,0.4,1.1,0.5,1.5,1c1,0.9-0.2,2.3,0.4,2.7c0.4,0.4,0.5,0.6,1.1,0.4c0.9-0.2,2.7-0.8,2.4-0.5l-1.7,2.1
			c-0.6,0.7-1.1,1.4-1.8,0.5c-1.2-1.5-3-5.4-3.3-6.6l-0.2-0.9c-0.2-1-0.1-1,0.5-1.8C176,32.2,175.9,32.1,175.7,33.3z M184.5,51
			c0.1-0.6-0.2-2.1-0.2-2.7c1.1-0.7,3.5-2.8,4.3-3.2c0.1,0.2-0.1,0.5,0,0.7c-0.6,0.9-1.4,1.8-2.1,2.7C185.7,49.5,185,50.5,184.5,51z
			 M191.8,48.7c-0.1,0.5-0.9,1.8-1.2,2.2c-0.2,0.2-0.6,0.3-0.8,0.3c0.4-0.7,1-1.6,1.2-2.4L191.8,48.7z M178.7,29.2
			c0.3-0.2,0.8-0.7,1-0.3c0.1,0.1,0.4,0.6,0.2,0.7c-0.3,0.2-0.7,0.4-1,0.7c-0.2,0.1-0.4,0.2-0.6,0c-0.1-0.1-0.2-0.1-0.2-0.3
			C178.2,29.7,178.4,29.4,178.7,29.2z M186.3,55c0.4-0.5,1.4-1.4,2-2.1l0.1,0.4l-0.8,1.2l0.1,1.7c0.8,0.6,1.1,1.3,1.3,2.1
			c0.1,0.7-0.4,1.8-0.9,1.8c-0.3,0-0.6-0.5-0.8-1.2C187,57.9,186.4,56,186.3,55z M99,113.6c1-3.1-1-5.3-2.8-7.9
			c-1.1,1.4,0.7,3-0.2,5.2c-0.6,0.4-1.2,0.5-1.9,0.5c-1.4-0.1-0.8,1-0.4,1.7c0.8,1.2,1.8,1.6,3,1.7C97.7,114.8,98.7,114.5,99,113.6z
			 M84.9,100.1c1.3,1.9,2.3,0.9,3.5,2.7l0.8,1.2c2.1-1.4,3.5-3,3-5c-0.2-0.9-0.5-1.6-1.5-1.6c-1.6,0-3.1-0.1-4.6,0.6
			C85.2,98.4,84.1,98.9,84.9,100.1z M81.5,90.4c1.5,1.4,4,1.5,5.8,0.2c1.6-1.1,1.9-2.7,1.2-4.3c-0.3-0.8-0.8-0.8-1.6-1
			c-1.8-0.5-3.2,0.2-4.7,1.2C80.7,87.5,80.1,89,81.5,90.4z M95.1,90.8c1.8-1.2,3.1-3.6,4.5-5.2c0.6-0.7,0.8-1.2,1.3-0.3l1.1,1.8
			c1,1.4,1.6,3.3,0.9,4.8c-0.5,1-0.8,1.4-1,2.7c-0.2,1.2-0.2,2.5,0.6,3.7l0.2,0.2c1.3,2,3.8,2,6,0.6c2.4-1.5,5.2-3.5,7-4.4l0.2-0.2
			c1.2-0.8,2.4-2.6,2.8-4.4c0.4-1.8,0.2-2.8-1.5-3.5c-1.2-0.5-2.4-0.6-3.6-1.1c-2.8-1.1-3.2-2.3-4.9-4.9c-2.2-2.8-6.1-8.6-9.7-6
			c-3,2.1-2.6,4.9-3.6,8c-1.1,3.5-2.1,3.9-2.1,7.4C93.2,91.2,93.9,91.6,95.1,90.8z M45.3,158.8c0.1,0,0.3-0.1,0.3-0.2
			c0.1-0.2-0.1-0.2-0.2-0.2c-0.1,0-0.1,0-0.2,0c-0.1,0-0.2,0-0.3,0c0,0-0.1,0-0.1,0C44.3,158.5,45.1,158.7,45.3,158.8z M27.8,173.3
			c1.7,1.9,1.3,0.1,3.8,1.2c1.3,0.6,1.6,2.4,2.6,3c0.5-0.3,0.1-1.5-0.3-2.6c-0.4-1.3-0.3-1.6,0.2-2.8c1.1-2.7,0.3-4.8-2.8-4.5
			c-1.3,0.1-2.6,0.9-3.5,2.5l-0.3,0.6C27.1,171.8,27,172.4,27.8,173.3z M41.7,183.7c1.2-0.2,2.2-1,3.6-1c1.2,0,2.5,0.5,3.5,0.9
			l0.9,0.3c1.8,1.2,3.7,2.2,5.7,2.6c1,0.2,2.2,0.3,3.2,0c1-0.3,1.8-0.9,1.9-1.8c0.2-2-0.1-4.4-2-5.2l-1.5-0.7
			c-1.7-0.7-3.6-0.8-5.6-1.3c-1.2-0.3-2.1-0.5-2.8-0.9c-1.4-0.9-2.7-3.8-2.5-5.4c0.1-0.8,0-1,0.7-0.6c0.9,0.5,1.9,1.4,2.9,2.2
			c1,0.8,2.1,1.4,3.3,2.1c1.3,0.7,2.6,1.4,4.1,0.6c1-0.5,1-1.3,2.2-0.8c1.4,0.6,3,1.7,5.1,0.9c1.1-0.4,1.1-0.9,1.4-2
			c0-0.1,0-0.3,0.1-0.4c0.4-2.1-0.3-2.9-2.9-4.3l-1.8-0.9c-0.7-0.3-1.3-0.6-2.1-0.8c-1.3-0.3-2.7-1.1-4.5-2.1
			c0.6-0.2,1.1-0.3,1.8-0.5c1.6-0.6,1.7-3,0.6-4.1c-1.1-1.1-2.2-2.3-2.8-3.5c-0.9-1.7,0-1.3,1.2-0.7c4.2,2,10.5,5.3,14.9,5.7
			c1.3,0.1,2.1,0.2,2.1-1.4c0-1.2-0.4-1.4-1.4-1.8c-3.7-1.7-7.6-3.6-11.5-5.2c-1.7-0.7-3.8-2.1-5.1-3.4c-1.4-1.5-1.7-3.3-3.4-4
			c-1.2-0.5-1.4-0.2-2.3,0c-0.4,0.1-0.8,1.2-0.9,1.6c-1.6,4.6,0.7,5.3,1.1,7c0.3,1.3-1,0.9-1.8,0.5l-1.7-0.7
			c-1.9-0.8-1.6-1.7-1.5-3.3c0.2-2.4-0.3-5.4-2-6.2c-0.6-0.3-1.5-0.5-2.5,0c-0.6,0.2-0.6,0.3-0.5,1c0.3,1,1,2.5,1.8,3.9
			c0.4,0.6,0.4,1.5,0.6,1.9c1.1,2.9,0.5,3,2,5.5c0.9,1.5,1.1,0.1,2.6,0.8c0.1,0,0.1,0.1,0.2,0.1c0.8,0.4,1.6,0.8,0.3,0.9
			c-1,0-1.6,0.3-1,1.4c0.4,0.7,0.4,1.4-0.5,0.6c-0.2-0.1-0.3-0.3-0.8-0.5l-1.9-0.8c-1.6-0.7-2.2,0-3.5-0.5l-1.7-0.7
			c-0.8-0.3-1.8-1.2-2.6-1.8c-0.7-0.5-1.6-0.8-2.4-1.2c-0.6-0.2-1-0.4-1.3-0.2c-0.9,0.5-1.2,0.7-1.5,1.9c-0.4,1.3,1.2,2.1,2.1,2.5
			c3,1.6,5.6,3.7,7.4,6.5c0.3,0.5,2.5,4,4.1,6.4c1.8,2.7,2.7,2.4-0.3,3.6c-0.7,0.3-1.1,0.8-1.6,1.3c-0.6,0.6-2.5,4-3.5,2.4
			c-0.6-1-1-1.5-2-2c-0.2-0.1-0.5-0.2-0.7-0.4c0,0.1,0.1,0.2,0.1,0.3c0.5,1.8,2.3,2.6,3.3,3.9C38.5,182.7,40.5,183.9,41.7,183.7z
			 M47.3,160.7c0.2,0.2,0.6,0.4,0.8,0.2c0.2-0.2,0-0.3,0-0.5c0-0.1-0.1-0.1-0.2-0.2C47.7,160.2,47,160.4,47.3,160.7z M49.6,162.2
			c0.1,0.1,0.2,0.2,0.3,0.3c0.1,0.1,0.4,0.2,0.5,0.1c0,0,0.1-0.1,0.1-0.1c0-0.1-0.1-0.1-0.2-0.2c-0.1,0-0.1-0.1-0.2-0.1
			C50,162.2,49.7,162.1,49.6,162.2z M276,51.6c3.1,0.9,3.3-0.1,5.9-0.9c-0.7,1.8-3.6,3.7-4.3,6.1c-0.9,3.2,1.7,3.6,3,4.8
			c1.3,1.2,0.6,2,1.9,2.9c2.2,1.5,3.3,1.2,4.2-1.2c0.6-1.8,1.1-3.9,1.9-6c1.4-3.4,2.7-3.1,5.9-4c-0.9,1.6-2.3,2-3.1,3.8
			c-0.3,0.7-0.4,1,0,1.7c0.4,0.9,1,1.4,2.2,1.7c0.6,0.2,0.5,0.2,0.3,0.8c-0.4,1.4-1.5,2.1-1,3.7c0.4,1.2,1.7,2,3.1,2.3l1.1,0.3
			c2.7,0.8,3.3-0.9,4.3-2.3c0.2-0.2,0.6-1.2,0.7-1.3c0.6,0.7,0.8,1,1.4,1.8c0.3,0.4,1,1.1,1.5,0.9c1.6-0.5,3-1,3.5-2.8
			c1-4.3-5-7.6-3.7-11c0.4-1.3,1-1.3,1.2-2.7c0.1-0.9,0.1-2.1,0.4-3l1.3-4.8c0.6-1.6,1.3-3.2,1.9-4.7c0.6-1.4,1-1.5-0.2-2.4
			c-1-0.8-1.3-0.7-2.4,0.1c-4.6,3.4-4.4,14-15.5,13.5c0.5-1.7,1.4-1.6,1.9-3.3l0.2-0.7c0.4-1.5-0.3-2.3,0.1-3.7l0.4-1.3
			c0.5-1.8,2.5-3.9,3-5.8c0.3-1.1,0.7-1.3-0.1-2.2c-0.5-0.6-0.9-1.4-1.8-1.1c-1.8,0.8-4.5,4.6-5.3,5.8c-1.9,3-2.5,4.8-6.2,6.1
			c-2.6,0.9-5,1-8.1,2.3C271.5,46.8,271.7,50.4,276,51.6z M297.5,60.3l0,0.2l-0.6,1l-0.6,0.4c-0.3,0-0.5-0.8-0.5-1.2
			C296.3,60.4,297.2,60.2,297.5,60.3z M434.1,170.8c-0.8,0.6-1.7,0.5-2.5,1c-0.4,0.3-0.7,0.5-0.8,0.7c-0.7,0.8-1.4,0.8-1.4,2
			c0,0.3,0.1,0.6,0.2,1l0.1,0.4c0.6,2,1.6,4.7,3.6,5.5c0.6,0.3,1.1,0,1.6-0.4c1.5-1.2,1.4-3,1-4.7c-0.1-0.3-0.3-0.7-0.2-0.9
			c0-0.1,1.6,0.3,1.8,0.3c0.5,0,1,0,1.5-0.2l0.7-0.2c0.5-0.2,1.1-0.9,1.8-1.5c1.4-1.4,1.9-1.5-0.6-2.1c-2.1-0.4-3.9-1-5.9-1.7
			C433.7,169.5,433.8,169.4,434.1,170.8z M429.6,185.7c0.8-1,1.7-2.2,1-4.3l-0.7-2.1c-0.8-2.6-3-4.7-4.2-6.9c-0.7-1.1-0.7-1,0.5-1.1
			c2.9-0.3,5.6-1.3,8.6-2.2c1.9-0.6,2.1-1.5,3.2-3.2c0.3-0.5,0.3-0.7,0.1-1c-0.3-0.7-0.7-0.5-1.3-0.2c-0.9,0.4-1.8,1.2-2.8,1.5
			c-0.6,0.2-1.2,0.4-1.7,0.5c-2.2,0.4-4.1,0.8-6.2,1.5c-1.2,0.4-1.9,2.2-2.7,1.2c-0.9-1,0.1-1,1.2-1.5l2.6-0.8
			c2.3-0.4,4.4-1.1,6.6-1.8c1.5-0.5,0.7-1.4-0.3-1.4c-0.1,0-0.2,0-0.3,0c-1.1-0.1-1.1-0.6-1.1-1.4c-0.1-1.6-2.1-1.4-3.3-1l-2,0.6
			c-2.7,0.9-3.9,2-5.4,3.8c-0.2,0.2-0.3,0.5-0.6,0.6c-0.3,0.1-0.8,0-1-0.7c-0.1-0.3,0.1-0.4,0.4-0.6c0.7-0.5,0.8-0.9-0.1-1.8
			c-1.4-1.3-3.9-1.8-5.5-1.3l-1.5,0.5c-1.4,0.4-2,1.7-1.6,3.1c1.4,1.1,3,1.1,4.2,2.3c1.8,1.9,0.4,2,3,2.3c0.7,0.1,0.9-0.3,1.2,0.6
			l0.2,0.6c1.4,1.9,4.2,3.3,5.6,7.3l0.2,0.6c0.2,0.6,0.6,1.2-0.4,0.9c-0.9-0.3-1.9-1-3.4-3.3c-0.6-1-1.7-1.8-2.6-2.6
			c-2.4-1.9-4.2-3.9-6.1-3.5c-0.5,0.1-0.9,0.8-0.7,1.3c0.7,2.4,1.7,1.9,2.7,3.5c-3.3-0.6-2.5-0.1-4.3-2.9c-0.9-1.5-1.3-2.4-2.4-3.1
			c-1-0.6-1.5-0.7-2.4,0.1c-1.1,1-1.6,2-0.8,3.3c0.9,1.4,2.4,2.5,2.6,3.5c0.2,0.9,0.1,0.8-0.8,1.2l-1.7,0.5
			c-1.5,0.5-2.9-0.8-3.5-2.1c-0.3-0.7-0.1-1.8,0.2-2.7c0.1-0.3,0.2-0.6,0.4-0.8c0.4-0.9-0.5-0.9-1.3-0.7c-0.4,0.1-0.9,0.4-1.4,0.6
			c-0.4,0.2-0.8,0.3-1.1,0.5c-0.3,0.1-0.4,0.2-0.6,0.4c-0.7,0.8-1.1,2.4-0.8,3.4l0.5,1.5c0.6,1.8,3.5,6.1,6.3,5.3l0.2-0.1l3.3-1.4
			c0.3-0.1,0.7-0.3,1-0.4c0.8-0.3,1-0.3,1.1,0.2l0.3,1.1c0.3,1.1,0.8,1.8,1.5,2.5c0.9,1,1.2,0.9,2-0.2c0.3-0.4,0.7-0.9,1-1.3
			c0.9-1.2,0.6-1.5,0.3-3c-0.2-0.8-0.7-1.4,0.4-1.1c1.2,0.4,2.5,1.7,4.4,1.9c1.2,0.1,1.7-0.1,2.3-1l0.4-0.7c0.6-0.9,0.8-1.3,1.2,0
			c0.4,1.2,0.3,3.1,0.6,4.1l0.1,0.4c0.4,1.2,1,1.4,1.7,1.7C428,187.7,428.4,187.1,429.6,185.7z M412.7,256.5c0,0.2,0,0.5,0.1,1
			c0.1,0.5,0.2,0.8,0.3,1c0.2,0.5,0.4,0.9,0.5,1.1c0.1,0.2,0.5,0.6,1.1,1.2c1.2,1.2,2.4,2.3,3.6,3.3c1.2,1,2.8,2.3,4.7,3.9
			c0.7,0.6,1.3,1,1.7,1.2c0.4,0.2,1.1,0.4,2,0.6l4.9,0.9c0.4,0.1,0.8,0.1,1.2-0.1c0.3-0.1,0.7-0.4,0.9-0.8c0.1-0.2,0.3-0.7,0.6-1.3
			c0.3-0.6,0.4-1.1,0.5-1.5l1.3,0.2l-2.1,12l-1.3-0.2c0-0.3,0.1-0.9,0.1-1.5c0.1-0.7,0-1.2,0-1.5c-0.1-0.5-0.3-0.8-0.6-1
			c-0.3-0.2-0.7-0.4-1.1-0.5l-6.2-1.1c-0.2,0-0.6,0-1.1,0.2c-0.6,0.2-1.2,0.3-1.9,0.5c-1.5,0.5-3.2,1-5,1.6
			c-1.8,0.6-3.3,1.1-4.6,1.6c-0.8,0.3-1.3,0.5-1.7,0.8c-0.4,0.2-0.8,0.5-1.1,0.9c-0.2,0.3-0.4,0.6-0.6,1c-0.2,0.4-0.3,0.7-0.4,1.1
			l-1.3-0.2l1.9-11l1.3,0.2c-0.2,1.2-0.3,2.1-0.2,2.7c0.1,0.5,0.2,0.8,0.5,0.9c0.1,0,0.2,0,0.4,0c0.2,0,0.4-0.1,0.7-0.2
			c0.3-0.1,0.7-0.2,1.2-0.4c0.4-0.1,0.9-0.3,1.3-0.4c1.2-0.4,2.3-0.8,3.5-1.2c1.2-0.4,2.7-0.9,4.6-1.6c-2.7-2.4-4.9-4.3-6.4-5.6
			c-1.5-1.3-2.5-2-2.8-2c-0.3,0-0.5,0-0.7,0.2c-0.2,0.2-0.4,0.4-0.5,0.7c-0.2,0.3-0.3,0.7-0.4,1.1c-0.1,0.4-0.2,0.8-0.3,1.1
			l-1.3-0.2l1.6-8.9L412.7,256.5z M412.7,284.4l-0.4,1.2c-0.5,0-1,0-1.7,0.1c-0.7,0.1-1.3,0.2-1.9,0.4c-0.7,0.2-1.2,0.4-1.8,0.7
			c-0.5,0.3-0.9,0.6-1.1,1c-0.2,0.3-0.3,0.8-0.6,1.3c-0.2,0.5-0.4,1-0.5,1.5l-0.3,1l19.8,6.4c0.4,0.1,0.8,0.2,1.1,0.1
			c0.4-0.1,0.7-0.3,1-0.6c0.2-0.2,0.4-0.6,0.8-1.2c0.4-0.6,0.6-1.1,0.7-1.5l1.2,0.4l-3.8,11.7l-1.2-0.4c0.1-0.3,0.2-0.8,0.3-1.5
			c0.1-0.7,0.2-1.2,0.2-1.5c0-0.4-0.2-0.8-0.4-1.1c-0.2-0.3-0.6-0.5-1.1-0.6l-20-6.5l-0.3,1c-0.1,0.4-0.3,0.8-0.4,1.4
			c-0.2,0.5-0.3,1.1-0.4,1.6c-0.1,0.4,0,0.9,0.3,1.4c0.3,0.5,0.6,1.1,1,1.6c0.4,0.5,0.9,1,1.4,1.5c0.5,0.5,0.9,0.8,1.3,1l-0.4,1.2
			l-6.7-2.2l7-21.6L412.7,284.4z M421.1,316.5l-4.6,10.8l-1.2-0.5c0.1-0.3,0.3-0.8,0.5-1.4c0.2-0.6,0.3-1,0.3-1.3
			c0-0.4-0.1-0.8-0.3-1.1c-0.2-0.3-0.5-0.5-1-0.7l-17.4-7.4c-0.4-0.2-0.7-0.2-1.1-0.2c-0.3,0-0.7,0.2-1,0.6
			c-0.3,0.3-0.6,0.7-0.9,1.1c-0.3,0.5-0.6,0.9-0.7,1.2l-1.2-0.5l4.6-10.8l1.2,0.5c-0.1,0.4-0.3,0.8-0.4,1.3c-0.1,0.5-0.2,1-0.3,1.4
			c0,0.5,0.1,0.9,0.3,1.1c0.2,0.3,0.6,0.5,0.9,0.7l17.4,7.4c0.4,0.2,0.7,0.2,1.1,0.2c0.4,0,0.7-0.2,1-0.5c0.2-0.2,0.5-0.5,0.8-1
			c0.3-0.5,0.6-0.9,0.8-1.3L421.1,316.5z M402.7,328.1c0.8-0.1,1.6-0.1,2.4,0.1c0.8,0.2,1.5,0.5,2.3,1.1c1.9,1.3,3.1,3,3.4,5.2
			c0.3,2.2-0.2,4.4-1.6,6.5c-0.6,1-1.4,1.9-2.4,2.6c-0.9,0.8-1.9,1.4-2.7,1.8l0.7,1.4l-0.8,1.2l-7.6-4.7l0.8-1.3
			c1.1,0.3,2.1,0.6,3.1,0.7c1,0.1,2,0.1,3,0c1-0.1,1.8-0.5,2.7-0.9c0.8-0.5,1.5-1.2,2.2-2.1c0.5-0.7,0.8-1.4,0.9-2
			c0.2-0.7,0.2-1.3,0.1-1.8c-0.1-0.6-0.4-1.1-0.7-1.5c-0.4-0.5-0.8-0.9-1.4-1.3c-0.9-0.6-1.9-0.9-2.9-0.8c-1.1,0-2.1,0.4-3.1,1.1
			c-0.7,0.5-1.5,1.1-2.4,1.7c-0.9,0.7-1.7,1.2-2.4,1.6c-1.4,0.9-2.7,1.4-4.1,1.5c-1.3,0.1-2.7-0.3-4.2-1.3c-0.8-0.5-1.5-1.2-2-2
			c-0.5-0.8-0.8-1.7-1-2.7c-0.1-0.9-0.1-1.9,0.1-2.9c0.2-1,0.6-2,1.2-2.8c0.7-1,1.4-1.8,2.2-2.4c0.8-0.6,1.7-1.1,2.5-1.5l-0.6-1.3
			l0.8-1.2l7.3,4.6l-0.8,1.2c-1-0.3-1.9-0.6-2.9-0.8c-0.9-0.2-1.9-0.3-2.8-0.2c-0.9,0.1-1.7,0.3-2.5,0.7c-0.8,0.4-1.5,1.1-2.1,2
			c-0.6,1-0.9,2-0.7,3.1c0.2,1.1,0.7,1.9,1.6,2.5c0.9,0.6,1.9,0.9,2.8,0.9c0.9,0,1.8-0.4,2.8-0.9c0.8-0.5,1.6-1,2.4-1.6
			c0.7-0.6,1.5-1.1,2.2-1.6c0.7-0.4,1.4-0.8,2.1-1.2C401.2,328.5,401.9,328.2,402.7,328.1z M380.6,347c-1.3-1-2.5-1.3-3.8-1.2
			c-1.3,0.2-2.4,0.9-3.4,2.2l-1.9,2.5l8.9,6.7l1.4-1.9c1-1.3,1.4-2.8,1.2-4.4C383,349.5,382.1,348.1,380.6,347z M402,351l-4.2,5.6
			c-2.9-0.2-5.4-0.4-7.6-0.4c-2.2-0.1-4.5-0.1-6.9,0l-1.6,2.1l6.6,5c0.3,0.3,0.7,0.4,1,0.5c0.3,0.1,0.7,0,1.1-0.2
			c0.2-0.1,0.5-0.4,0.9-0.8c0.4-0.4,0.7-0.7,0.9-1l1,0.8l-6.6,8.8l-1-0.8c0.2-0.3,0.4-0.6,0.7-1.1c0.3-0.5,0.5-0.8,0.5-1.1
			c0.1-0.4,0.1-0.7-0.1-1.1c-0.1-0.3-0.4-0.6-0.8-0.9L370.9,355c-0.3-0.3-0.7-0.4-1-0.5c-0.3-0.1-0.7,0-1.1,0.2
			c-0.3,0.2-0.6,0.4-1,0.8c-0.4,0.3-0.7,0.6-0.9,0.9l-1-0.8l7.2-9.6c0.7-0.9,1.4-1.6,2.1-2.3c0.8-0.6,1.6-1.1,2.5-1.4
			c0.8-0.3,1.7-0.4,2.6-0.3c0.9,0.1,1.8,0.5,2.7,1.2c0.8,0.6,1.4,1.3,1.9,2c0.4,0.7,0.7,1.5,0.8,2.3c0.1,0.8,0.1,1.6-0.1,2.4
			c-0.2,0.9-0.4,1.7-0.7,2.6c2.1,0,3.9,0,5.4,0c1.4,0,3.2,0,5.3,0c0.9,0,1.6,0,2.2-0.2c0.5-0.1,1-0.3,1.5-0.5c0.3-0.2,0.7-0.4,1-0.7
			c0.4-0.3,0.6-0.6,0.8-0.9L402,351z M376.6,369.9l5,5.9l-15.6,15l-0.9-0.9c0.2-0.3,0.6-0.7,0.9-1.1c0.4-0.5,0.6-0.8,0.7-1
			c0.1-0.4,0.2-0.8,0.1-1.1c-0.1-0.3-0.3-0.6-0.6-1l-13-13.5c-0.3-0.3-0.6-0.5-0.9-0.6c-0.3-0.1-0.7-0.1-1.1,0
			c-0.3,0.1-0.8,0.3-1.3,0.6c-0.5,0.3-0.9,0.6-1.1,0.8l-0.9-0.9l14.5-14l4.4,4.5l-1,1c-0.8-0.5-1.9-0.8-3.2-1
			c-1.3-0.2-2.3-0.1-2.9,0.4c-0.3,0.2-0.7,0.5-1.1,0.9c-0.4,0.3-0.8,0.8-1.3,1.2l-2.9,2.8l7.2,7.5l2.1-2c0.7-0.7,1.1-1.2,1.3-1.6
			c0.2-0.4,0.3-0.9,0.2-1.4c-0.1-0.4-0.2-0.9-0.5-1.5c-0.3-0.6-0.6-1-0.9-1.5l1-1l7.1,7.3l-1,1c-0.4-0.4-1-0.7-1.6-1.1
			c-0.6-0.3-1.1-0.5-1.5-0.6c-0.6-0.1-1.1,0-1.6,0.2c-0.4,0.2-1,0.6-1.5,1.2l-2.1,2l5.4,5.6c0.5,0.6,1,1,1.4,1.2
			c0.4,0.2,0.8,0.3,1.2,0.3c0.4-0.1,0.8-0.2,1.3-0.6c0.4-0.3,1-0.9,1.8-1.6c0.3-0.3,0.7-0.6,1.2-1.1c0.5-0.5,0.9-0.9,1.1-1.2
			c0.3-0.4,0.6-0.8,0.9-1.2c0.3-0.4,0.4-0.8,0.4-1.1c0-0.8-0.2-1.9-0.6-3.2c-0.4-1.3-0.7-2.2-1-2.7L376.6,369.9z M347.8,373.6
			c-0.3,0.2-0.5,0.5-0.8,0.8c-0.3,0.4-0.5,0.7-0.6,1c-0.2,0.5-0.3,0.9-0.2,1.4c0,0.5,0.1,1,0.2,1.6c0.5,2.1,1.3,5.2,2.4,9.5
			c1.1,4.3,2.2,8.8,3.5,13.4l-1.2,0.9c-4.2-2.8-8.3-5.5-12.2-8.1c-3.9-2.6-6.6-4.3-7.9-5.2c-0.3-0.2-0.7-0.4-1.1-0.5
			c-0.4-0.1-0.8-0.1-1.3-0.1c-0.4,0-0.8,0.1-1.2,0.3c-0.4,0.1-0.7,0.3-1,0.5l-0.8-1.1l8.7-6.3l0.8,1.1c-0.7,0.6-1.3,1.1-1.7,1.6
			c-0.4,0.5-0.5,0.9-0.3,1.1c0.1,0.1,0.2,0.2,0.3,0.3c0.1,0.1,0.3,0.2,0.4,0.3c1.1,0.7,2.8,1.9,5.2,3.5c2.4,1.6,5.9,3.9,10.3,6.8
			c-0.6-2.4-1.3-5.2-2.1-8.4c-0.8-3.2-1.4-5.4-1.8-6.6c-0.3-1.1-0.6-1.9-0.8-2.3c-0.2-0.4-0.4-0.7-0.5-0.9c-0.2-0.2-0.4-0.3-0.7-0.4
			c-0.3,0-0.7,0.1-1.1,0.2c-0.4,0.1-0.8,0.3-1.2,0.5c-0.4,0.2-0.7,0.4-1.1,0.6l-0.8-1.1l7.9-5.7L347.8,373.6z M336.7,411.1
			l-10.1,6.1l-0.7-1.1c0.3-0.2,0.7-0.5,1.2-0.8c0.5-0.4,0.9-0.7,1-0.9c0.3-0.3,0.4-0.7,0.4-1c0-0.3-0.1-0.7-0.4-1.1l-9.7-16.2
			c-0.2-0.4-0.5-0.6-0.7-0.8c-0.3-0.2-0.7-0.2-1.2-0.1c-0.4,0.1-0.9,0.2-1.4,0.4c-0.5,0.2-1,0.4-1.3,0.5l-0.7-1.1l10.1-6.1l0.7,1.1
			c-0.3,0.2-0.7,0.5-1.1,0.8c-0.4,0.3-0.8,0.7-1,1c-0.3,0.4-0.5,0.7-0.4,1.1c0,0.4,0.2,0.7,0.4,1.1l9.7,16.2
			c0.2,0.3,0.5,0.6,0.8,0.8c0.3,0.2,0.7,0.2,1.2,0.2c0.3,0,0.7-0.2,1.2-0.4c0.6-0.2,1-0.4,1.4-0.6L336.7,411.1z M312.7,396.7
			c-0.3,0.1-0.8,0.4-1.4,0.9c-0.6,0.4-1,0.8-1.2,1.1c-0.3,0.5-0.3,1.1-0.2,2c0.2,0.9,0.5,1.9,1,3.2l7.2,17.7l-1.5,0.6l-22.7-13.9
			l5,12.5c0.6,1.4,1.1,2.4,1.6,3.1c0.5,0.7,1,1.1,1.5,1.3c0.4,0.1,1,0.2,1.9,0c0.9-0.1,1.5-0.2,1.8-0.3l0.5,1.2l-9.9,4l-0.5-1.2
			c0.3-0.1,0.8-0.5,1.4-1c0.6-0.5,1-0.9,1.2-1.1c0.3-0.5,0.3-1.1,0.2-1.8c-0.1-0.7-0.5-1.9-1.1-3.4l-4.8-11.9
			c-0.2-0.5-0.5-1-0.9-1.5c-0.4-0.5-0.8-0.8-1.2-0.9c-0.6-0.2-1.2-0.3-2-0.3c-0.8,0-1.4,0.1-1.9,0.3l-0.5-1.2l6.9-2.8l21.1,12.9
			l-4.6-11.5c-0.6-1.4-1.1-2.5-1.6-3.1c-0.5-0.7-0.9-1.1-1.4-1.2c-0.4-0.1-1-0.1-1.8,0c-0.8,0.1-1.4,0.2-1.8,0.3l-0.5-1.2l9.8-4
			L312.7,396.7z M284.9,407.4c-0.3,0.1-0.8,0.3-1.4,0.6c-0.6,0.3-1.1,0.6-1.4,1c-0.3,0.4-0.5,1-0.5,1.9c0,0.9,0.2,2,0.5,3.2l2.6,11
			c0.3,1.4,0.3,2.7,0,3.9c-0.3,1.2-0.9,2.2-1.7,3.1c-0.8,0.9-1.7,1.6-2.7,2.1c-1,0.5-1.9,0.9-2.9,1.1c-1.5,0.4-2.9,0.5-4.2,0.3
			c-1.3-0.1-2.4-0.4-3.4-0.9c-1-0.5-1.7-1.1-2.3-1.9c-0.6-0.8-1-1.7-1.2-2.6l-3.5-15c-0.1-0.4-0.3-0.7-0.4-1c-0.2-0.2-0.5-0.4-1-0.6
			c-0.3-0.1-0.8-0.1-1.2-0.1c-0.5,0-0.9,0-1.2,0.1l-0.3-1.3l10.6-2.4l0.3,1.3c-0.3,0.1-0.7,0.2-1.2,0.4c-0.5,0.2-0.8,0.4-1.1,0.5
			c-0.4,0.2-0.6,0.5-0.7,0.9c-0.1,0.4,0,0.7,0.1,1.1l3.2,14c0.2,0.7,0.4,1.4,0.7,2.1c0.3,0.7,0.8,1.3,1.4,1.9
			c0.6,0.6,1.4,0.9,2.3,1.2c0.9,0.2,2,0.2,3.4-0.1c1.3-0.3,2.4-0.8,3.2-1.4c0.8-0.6,1.4-1.3,1.7-2.1c0.3-0.8,0.5-1.5,0.6-2.3
			c0-0.8,0-1.5-0.2-2.2l-2.4-10.4c-0.3-1.3-0.6-2.4-1-3.2c-0.4-0.8-0.8-1.3-1.2-1.5c-0.5-0.2-1.1-0.3-1.9-0.3c-0.8,0-1.3,0-1.7,0.1
			l-0.3-1.3l10.4-2.4L284.9,407.4z M249.4,419.4l-1.4,0.1c-0.3-1-0.9-2-1.8-3c-0.9-1.1-1.7-1.6-2.4-1.7c-0.4,0-0.8,0-1.4,0
			c-0.5,0-1.1,0-1.8,0.1l-4.4,0.2l0.5,10.5l3-0.2c0.9,0,1.6-0.2,2.1-0.4c0.5-0.2,0.9-0.5,1.2-0.9c0.2-0.3,0.4-0.7,0.6-1.3
			c0.2-0.6,0.3-1.2,0.3-1.9l1.4-0.1L246,431l-1.4,0.1c-0.1-0.5-0.2-1.1-0.5-1.8c-0.2-0.7-0.5-1.2-0.8-1.4c-0.4-0.4-0.9-0.7-1.4-0.9
			c-0.6-0.1-1.2-0.2-2-0.1l-3,0.2l0.5,9c0,0.4,0.1,0.8,0.3,1.1c0.2,0.3,0.5,0.6,0.9,0.7c0.2,0.1,0.6,0.2,1.2,0.3
			c0.6,0.1,1.1,0.1,1.4,0.1l0.1,1.3l-11.3,0.6l-0.1-1.3c0.4,0,0.9-0.1,1.5-0.2c0.6-0.1,1-0.2,1.2-0.3c0.4-0.2,0.6-0.4,0.8-0.7
			c0.2-0.3,0.2-0.7,0.2-1.1l-1-18.8c0-0.4-0.1-0.8-0.3-1.1c-0.2-0.3-0.4-0.5-0.9-0.7c-0.3-0.1-0.8-0.3-1.4-0.4
			c-0.6-0.1-1-0.1-1.3-0.1l-0.1-1.3l20.4-1.1L249.4,419.4z M211.3,434.8c-1-1.6-2-3.3-3.2-5.2c-1.2-1.9-2.2-3.5-2.9-4.8
			c-1.1,0.6-1.9,1.3-2.4,2.1c-0.5,0.9-0.9,1.9-1,3.1c-0.2,1.7,0.1,3.1,0.9,4.3c0.8,1.2,2,1.9,3.6,2.1c0.9,0.1,1.8,0,2.7-0.2
			C209.9,435.9,210.7,435.5,211.3,434.8z M211.9,417.8c0.2-1.2,0-2.2-0.5-3c-0.5-0.7-1.2-1.2-2.2-1.3c-0.6-0.1-1.1,0-1.5,0.2
			c-0.4,0.2-0.8,0.4-1.1,0.8c-0.3,0.3-0.5,0.7-0.7,1c-0.2,0.4-0.3,0.7-0.3,1c-0.1,0.8,0,1.7,0.3,2.6c0.3,0.9,0.9,2,1.7,3.4
			c1.3-0.6,2.3-1.2,3-2C211.4,419.8,211.8,418.9,211.9,417.8z M224.1,425.3c-0.7,0-1.5,0-2.2,0.2c-0.8,0.1-1.4,0.4-1.8,0.9
			c-0.3,0.3-0.6,0.7-0.9,1.2c-0.3,0.5-0.7,1.2-1.2,1.9c-0.5,0.7-0.9,1.5-1.4,2.2c-0.5,0.7-1.1,1.4-1.7,2.1c0.4,0.6,0.9,1.4,1.6,2.1
			c0.6,0.8,1.2,1.3,1.6,1.7c0.5,0.3,1.1,0.7,2,1c0.9,0.3,1.6,0.5,2.2,0.6l-0.2,1.3l-7.5-0.9l-2.3-3.4c-0.5,0.4-1,0.8-1.5,1.2
			c-0.6,0.4-1.2,0.7-1.8,1c-0.7,0.3-1.4,0.5-2,0.6c-0.7,0.1-1.4,0.1-2.3,0c-0.9-0.1-1.8-0.4-2.6-0.7c-0.9-0.4-1.6-0.9-2.3-1.5
			c-0.6-0.6-1.1-1.4-1.5-2.4c-0.3-0.9-0.4-2-0.3-3.2c0.2-1.5,0.8-2.8,1.7-3.9c0.9-1.1,2.6-2.2,4.9-3.4c-0.8-1.4-1.5-2.6-1.9-3.7
			c-0.4-1-0.6-2.1-0.4-3.3c0.1-0.8,0.4-1.6,0.8-2.2c0.4-0.7,1-1.2,1.6-1.7c0.6-0.4,1.3-0.7,2.2-0.9c0.8-0.2,1.7-0.2,2.5-0.1
			c1,0.1,1.8,0.4,2.5,0.8c0.7,0.4,1.2,0.9,1.6,1.4c0.4,0.5,0.6,1.1,0.8,1.7c0.1,0.6,0.2,1.3,0.1,1.9c-0.2,1.5-0.8,2.7-1.8,3.6
			c-1,0.9-2.4,1.7-4.1,2.4c1,1.7,1.9,3.2,2.8,4.6c0.9,1.4,1.8,2.8,2.7,4.1c1-1.2,1.8-2.3,2.4-3.4c0.6-1.1,0.9-2.1,1-3
			c0-0.4-0.2-0.7-0.7-1c-0.5-0.3-1.3-0.6-2.3-0.9l0.2-1.3l9.8,1.2L224.1,425.3z M181.4,422.9l-1-10.8l-6.5,8.7L181.4,422.9z
			 M188.6,436l-10.4-3l0.4-1.3c0.9,0.2,1.7,0.3,2.4,0.3c0.7,0,1-0.1,1.1-0.4c0-0.1,0.1-0.2,0.1-0.4c0-0.2,0-0.3,0-0.4l-0.5-6.2
			l-8.8-2.5c-0.6,0.7-1,1.4-1.4,1.9c-0.4,0.6-0.7,1.1-1,1.5c-0.3,0.5-0.5,0.8-0.7,1.1c-0.1,0.3-0.2,0.6-0.3,0.8
			c-0.1,0.5,0.1,0.9,0.8,1.4c0.7,0.5,1.5,0.9,2.4,1.2l-0.4,1.3l-9.4-2.7l0.4-1.3c0.3,0.1,0.7,0.1,1.2,0.1c0.5,0,0.9,0,1.3-0.1
			c0.6-0.2,1-0.4,1.4-0.7c0.4-0.3,0.7-0.7,1.2-1.2c2.2-2.8,4.6-5.9,7.2-9.4c2.6-3.5,5-6.6,7.1-9.3l1.4,0.4l2.2,24
			c0,0.5,0.1,0.9,0.3,1.3c0.1,0.3,0.4,0.7,0.7,1.1c0.2,0.2,0.5,0.5,0.9,0.7c0.4,0.2,0.8,0.4,1,0.5L188.6,436z M155.9,415.3
			c-0.3-0.1-0.7-0.2-1.1-0.4c-0.5-0.2-0.9-0.2-1.2-0.2c-0.4,0-0.8,0.1-1.1,0.3c-0.3,0.2-0.5,0.6-0.7,1l-0.9,1.8
			c-0.7,1.3-1.1,2.2-1.3,2.7c-0.2,0.5-0.4,0.9-0.5,1.2c-1.8-0.1-3.5-0.3-5.1-0.7c-1.6-0.4-3.1-0.9-4.5-1.6c-1.5-0.8-2.8-1.8-3.9-3
			c-1.1-1.3-1.9-2.7-2.4-4.2c-0.5-1.6-0.7-3.2-0.5-5c0.1-1.8,0.7-3.6,1.6-5.4c0.9-1.8,2-3.3,3.4-4.5c1.4-1.2,2.9-2.1,4.5-2.7
			c1.6-0.6,3.3-0.8,5-0.7c1.7,0.1,3.4,0.6,5.1,1.4c1.3,0.7,2.4,1.4,3.2,2.2c0.8,0.8,1.5,1.6,2,2.5l1.2-0.8l1.3,0.7l-4,8.2l-1.3-0.7
			c0.2-1,0.4-2,0.5-3.1c0.1-1,0.1-2-0.1-3c-0.2-1-0.6-1.8-1.1-2.6c-0.6-0.8-1.4-1.5-2.4-2c-1.2-0.6-2.3-0.9-3.5-0.9
			c-1.2,0-2.3,0.3-3.5,0.9c-1.1,0.6-2.2,1.4-3.3,2.6c-1,1.2-2,2.6-2.9,4.3c-0.7,1.5-1.3,3-1.6,4.4c-0.3,1.5-0.4,2.9-0.2,4.2
			c0.2,1.3,0.6,2.5,1.4,3.6c0.7,1.1,1.7,1.9,3,2.6c1,0.5,1.9,0.8,2.9,0.9c0.9,0.1,1.7,0.1,2.2-0.1c0.4-0.5,0.7-1.1,1-1.7
			c0.3-0.6,0.6-1.1,0.8-1.5l0.7-1.3c0.2-0.5,0.4-0.9,0.4-1.3c0.1-0.4-0.1-0.8-0.4-1.2c-0.3-0.4-0.7-0.7-1.3-1.1
			c-0.6-0.4-1-0.7-1.4-0.9l0.6-1.2l10.2,5.2L155.9,415.3z M137.9,390.2c-0.3-0.2-0.8-0.4-1.5-0.7c-0.7-0.3-1.2-0.4-1.6-0.4
			c-0.5,0-1.1,0.3-1.8,0.9c-0.6,0.6-1.3,1.5-2.1,2.5L119.7,408l-1.3-0.9l-0.2-26.6l-7.9,10.9c-0.9,1.2-1.5,2.2-1.8,3
			c-0.3,0.8-0.4,1.4-0.3,1.9c0.1,0.4,0.4,0.9,1,1.6c0.6,0.7,1,1.2,1.2,1.3l-0.8,1.1l-8.7-6.3l0.8-1.1c0.3,0.2,0.8,0.4,1.6,0.7
			c0.8,0.3,1.3,0.4,1.5,0.4c0.5,0,1.1-0.3,1.6-0.8c0.5-0.5,1.3-1.4,2.3-2.8l7.5-10.4c0.3-0.5,0.6-1,0.8-1.5c0.2-0.6,0.2-1.1,0.1-1.5
			c-0.1-0.6-0.4-1.2-0.8-1.9c-0.4-0.7-0.8-1.2-1.2-1.5l0.8-1.1l6,4.4l0.2,24.7l7.3-10c0.9-1.2,1.5-2.2,1.8-3
			c0.3-0.8,0.4-1.4,0.3-1.8c-0.1-0.4-0.5-0.9-1-1.5c-0.5-0.6-0.9-1.1-1.2-1.3l0.8-1.1l8.6,6.2L137.9,390.2z M97.8,377l4.2-10
			l-9.8,4.6L97.8,377z M98,392l-7.8-7.5l0.9-0.9c0.7,0.6,1.4,1.1,2,1.4c0.6,0.3,1,0.4,1.2,0.2c0.1-0.1,0.2-0.2,0.3-0.3
			c0.1-0.1,0.2-0.3,0.2-0.4l2.5-5.7l-6.6-6.3c-0.8,0.4-1.6,0.7-2.2,1c-0.6,0.3-1.1,0.6-1.6,0.9c-0.5,0.3-0.9,0.5-1.1,0.7
			c-0.3,0.2-0.5,0.4-0.6,0.5c-0.3,0.4-0.3,0.9,0,1.6c0.4,0.7,0.9,1.4,1.5,2.2l-0.9,0.9l-7.1-6.8l0.9-0.9c0.2,0.2,0.6,0.4,1,0.7
			c0.4,0.3,0.8,0.4,1.2,0.5c0.6,0.1,1.1,0.1,1.5,0c0.4-0.1,1-0.2,1.6-0.5c3.2-1.4,6.8-3.1,10.8-4.9c4-1.8,7.5-3.5,10.6-4.9l1.1,1
			L98,386.5c-0.2,0.5-0.3,0.9-0.4,1.3c0,0.4,0,0.8,0.1,1.3c0.1,0.3,0.2,0.7,0.5,1.1c0.2,0.4,0.5,0.7,0.7,0.9L98,392z M76,369.9
			l-7.7-8.9l1-0.9c0.2,0.2,0.6,0.6,1,1c0.4,0.4,0.8,0.7,1,0.9c0.4,0.2,0.7,0.3,1.1,0.2c0.3,0,0.7-0.2,1-0.6l14.3-12.4
			c0.3-0.3,0.6-0.6,0.7-0.9c0.1-0.3,0.1-0.7-0.1-1.2c-0.1-0.4-0.3-0.8-0.6-1.3c-0.3-0.5-0.5-0.9-0.7-1.2l1-0.9l7.7,8.9l-1,0.9
			c-0.3-0.3-0.6-0.6-1-0.9c-0.4-0.3-0.8-0.6-1.1-0.8c-0.4-0.3-0.8-0.3-1.2-0.2c-0.4,0.1-0.7,0.3-1,0.5l-14.3,12.4
			c-0.3,0.3-0.5,0.6-0.6,0.9c-0.1,0.3-0.1,0.7,0,1.2c0.1,0.3,0.3,0.6,0.6,1.2c0.3,0.5,0.6,0.9,0.8,1.2L76,369.9z M84.9,342
			c-0.2-0.3-0.5-0.6-0.8-1c-0.4-0.4-0.7-0.7-1-0.9c-0.4-0.3-0.7-0.3-1.1-0.3c-0.4,0.1-0.7,0.2-1,0.5l-12.7,8.9
			c-0.7,0.5-1.5,0.8-2.4,1.1c-0.9,0.3-1.9,0.3-2.8,0.2c-1.1-0.1-2.1-0.5-3.1-1c-1-0.6-1.8-1.3-2.5-2.4c-1.1-1.6-1.6-3.3-1.4-4.9
			c0.2-1.7,1.1-3,2.6-4.1c0.7-0.5,1.4-0.7,2.2-0.7c0.8,0,1.4,0.3,1.9,1c0.4,0.6,0.6,1.2,0.5,1.8c-0.1,0.6-0.4,1.1-0.9,1.5
			c-0.3,0.2-0.7,0.4-1.1,0.5c-0.4,0.1-0.8,0.2-1.2,0.2c-0.3,0-0.7,0-1.2,0.1c-0.4,0-0.8,0.1-1.1,0.2c-0.2,0.4-0.2,1-0.2,1.6
			c0.1,0.6,0.4,1.3,0.9,2.1c0.5,0.7,1.1,1.2,1.8,1.5c0.7,0.2,1.4,0.3,2.1,0.1c0.7-0.1,1.4-0.4,2.3-0.9c0.8-0.4,1.7-1,2.7-1.7
			l11.3-7.9c0.3-0.2,0.6-0.5,0.8-0.8c0.2-0.3,0.2-0.7,0.1-1.2c-0.1-0.4-0.2-0.9-0.5-1.4c-0.2-0.5-0.5-0.9-0.6-1.3l1.1-0.7l6.6,9.4
			L84.9,342z M58.5,333.8l-7.1,2.9l-9.5-19.5l1.2-0.6c0.2,0.3,0.4,0.7,0.8,1.3c0.3,0.5,0.6,0.8,0.7,1c0.3,0.3,0.7,0.4,1,0.4
			c0.3,0,0.7-0.1,1.1-0.3l16.9-8.2c0.4-0.2,0.7-0.4,0.9-0.7c0.2-0.3,0.3-0.6,0.3-1.1c0-0.4-0.1-0.8-0.2-1.4c-0.1-0.6-0.3-1-0.4-1.3
			l1.2-0.6l8.8,18.1l-5.7,2.8l-0.6-1.2c0.7-0.6,1.4-1.5,2-2.7c0.6-1.2,0.8-2.1,0.5-2.8c-0.1-0.4-0.3-0.8-0.5-1.3
			c-0.2-0.5-0.5-1-0.8-1.6l-1.8-3.7l-9.3,4.5l1.3,2.6c0.4,0.8,0.8,1.4,1.1,1.7c0.3,0.3,0.8,0.5,1.3,0.6c0.4,0.1,1,0.1,1.6,0
			c0.6-0.1,1.2-0.2,1.7-0.4l0.6,1.2l-9.2,4.5l-0.6-1.2c0.5-0.3,1-0.7,1.5-1.2c0.5-0.5,0.8-0.9,1-1.2c0.3-0.5,0.4-1.1,0.3-1.6
			c-0.1-0.5-0.3-1.1-0.6-1.8l-1.3-2.6l-7,3.4c-0.7,0.3-1.2,0.7-1.6,1c-0.4,0.3-0.6,0.6-0.6,1c-0.1,0.4,0,0.8,0.2,1.4
			c0.2,0.5,0.5,1.2,0.9,2.2c0.2,0.4,0.4,0.8,0.7,1.4c0.3,0.6,0.6,1.1,0.8,1.5c0.3,0.4,0.5,0.8,0.9,1.2c0.3,0.4,0.6,0.6,0.9,0.7
			c0.8,0.2,1.8,0.4,3.2,0.4c1.4,0,2.3,0,2.9-0.1L58.5,333.8z M38.8,310.7l-3.5-10.2l1.2-0.4c0.1,0.3,0.3,0.7,0.5,1.2
			c0.2,0.5,0.4,0.9,0.6,1c0.3,0.3,0.6,0.5,0.9,0.5c0.3,0.1,0.7,0,1.2-0.1l8.8-3l-4-11.6l-8.6,3c-0.4,0.1-0.7,0.3-1,0.6
			c-0.2,0.2-0.4,0.6-0.5,1c0,0.2,0,0.6,0,1.2c0.1,0.5,0.2,1,0.2,1.3l-1.2,0.4L30,285.2l1.2-0.4c0.1,0.3,0.3,0.7,0.5,1.2
			c0.2,0.5,0.4,0.9,0.6,1c0.3,0.3,0.6,0.5,0.9,0.5c0.3,0.1,0.7,0,1.2-0.1l17.8-6.1c0.4-0.1,0.7-0.3,0.9-0.6c0.3-0.3,0.4-0.6,0.5-1
			c0-0.4,0-0.8,0-1.3c0-0.5-0.1-0.9-0.2-1.2l1.2-0.4l3.5,10.2l-1.2,0.4c-0.1-0.3-0.3-0.7-0.6-1.1c-0.3-0.4-0.5-0.8-0.6-1
			c-0.3-0.3-0.6-0.5-1-0.6c-0.4,0-0.8,0-1.1,0.2l-7.6,2.6l4,11.6l7.5-2.6c0.4-0.1,0.7-0.3,0.9-0.6c0.3-0.3,0.4-0.6,0.5-1
			c0-0.4,0-0.8,0-1.3c0-0.5-0.1-0.9-0.2-1.2L60,292l3.5,10.2l-1.2,0.4c-0.1-0.3-0.3-0.7-0.6-1.1c-0.3-0.4-0.5-0.8-0.6-1
			c-0.3-0.3-0.6-0.5-1-0.6c-0.4,0-0.8,0-1.1,0.2l-17.8,6.1c-0.4,0.1-0.7,0.3-1,0.6c-0.2,0.2-0.4,0.6-0.5,1c0,0.2,0,0.6,0,1.2
			c0.1,0.5,0.2,1,0.2,1.3L38.8,310.7z M36.9,278.1l-8.2,0.6L25.1,258l0.6-0.1l26.5,12l-1-5.9c-0.1-0.7-0.2-1.3-0.3-1.7
			c-0.1-0.5-0.2-0.9-0.4-1.3c-0.3-0.8-1.1-1.6-2.4-2.3c-1.3-0.8-2.7-1.3-4.1-1.6l-0.2-1.3l7.4-0.5l3.4,19.2l-0.6,0.1l-26.5-12
			l1.1,6.1c0.2,1,0.4,2.1,0.8,3.2c0.3,1.1,0.7,1.8,1.1,2.1c0.9,0.7,1.9,1.2,3.1,1.7c1.2,0.5,2.3,0.8,3.1,1L36.9,278.1z M240.3,7.1
			c124.2,4.6,221.2,109,216.7,233.2C452.4,364.5,348,461.5,223.8,457C99.6,452.4,2.6,348,7.1,223.8C11.7,99.6,116.1,2.6,240.3,7.1z
			 M240.5,0.2c128,4.7,228.1,112.3,223.4,240.4c-4.7,128-112.3,228.1-240.4,223.4C95.5,459.2-4.5,351.6,0.2,223.5
			C4.9,95.5,112.5-4.5,240.5,0.2z M181,362.1v-2.1c-1.6-0.1-2.9-0.2-3.8-0.5c-1-0.2-1.7-0.5-2.1-0.9c-0.5-0.4-0.7-1-0.9-1.8
			c-0.1-0.8-0.2-1.8-0.2-3.1v-36.3c-2.2,0.8-4.4,1.5-6.7,2.2c-2.3,0.7-4.6,1.2-7,1.6v1.7l3.8,0.1c1,0.1,1.7,0.2,2.2,0.4
			c0.5,0.2,0.8,0.6,0.9,1.2c0.1,0.6,0.2,1.5,0.2,2.7v26.5c0,1.3,0,2.3-0.2,3.1c-0.1,0.8-0.4,1.4-0.9,1.8c-0.5,0.4-1.1,0.7-2.1,0.9
			c-0.9,0.2-2.2,0.4-3.8,0.5v2.1H181z M209.7,317c-2.4,0-4.5,0.5-6.4,1.4c-1.9,0.9-3.5,2.1-4.8,3.6c-1.3,1.5-2.3,3.1-3,4.9
			c-0.7,1.8-1,3.5-1,5.3c0,2.5,0.6,4.8,1.7,6.7c1.1,2,2.6,3.5,4.6,4.6c2,1.1,4.3,1.7,7,1.7c0.7,0,1.3-0.1,2-0.2
			c0.7-0.2,1.5-0.5,2.3-0.9l4.7-2.5c-0.8,3.5-2.2,6.6-4.1,9.3c-1.9,2.7-4.3,4.9-7.2,6.7c-2.8,1.7-6,2.9-9.6,3.5l0.4,2.2
			c0.7,0,1.7-0.1,2.8-0.3c1.2-0.2,2.5-0.4,3.8-0.8c1.4-0.3,2.7-0.7,4-1.2c2.5-1,4.8-2.3,6.9-3.9c2.1-1.6,4-3.5,5.5-5.7
			c1.6-2.2,2.8-4.7,3.7-7.5c0.9-2.8,1.3-5.8,1.3-9.1c0-2.4-0.3-4.7-1-6.9c-0.7-2.2-1.6-4.1-2.9-5.7c-1.3-1.6-2.8-2.9-4.6-3.9
			c-1.8-0.9-3.9-1.4-6.2-1.4H209.7z M208.7,319.5c1.7,0,3.1,0.5,4.3,1.4c1.1,0.9,2,2.2,2.7,3.7c0.6,1.5,1.1,3.1,1.4,4.9
			c0.3,1.7,0.4,3.4,0.4,5.1c0,0.7,0,1.5-0.1,2.3c0,0.8-0.1,1.6-0.2,2.5c-0.7,0.5-1.6,0.9-2.7,1.3c-1.1,0.4-2.2,0.6-3.5,0.6
			c-2,0-3.7-0.6-5.2-1.6c-1.5-1.1-2.6-2.4-3.3-4.2c-0.8-1.7-1.2-3.6-1.2-5.7c0-1.1,0.1-2.2,0.4-3.4c0.3-1.2,0.7-2.3,1.3-3.3
			c0.6-1,1.4-1.9,2.3-2.5C206.2,319.8,207.3,319.5,208.7,319.5L208.7,319.5z M242.2,323.5h17.3l2-5.1l-0.4-0.5h-21.3l-2.9,21.9
			c0.9-0.3,2-0.6,3.3-0.9c1.3-0.3,2.8-0.5,4.3-0.5c2.6,0,4.8,0.5,6.5,1.4c1.8,0.9,3.1,2.2,3.9,3.8c0.9,1.6,1.3,3.5,1.3,5.6
			c0,1.3-0.2,2.6-0.5,3.8c-0.3,1.2-0.9,2.3-1.6,3.3c-0.7,1-1.6,1.7-2.7,2.3c-1.1,0.6-2.4,0.9-3.9,0.9c-1.5,0-2.9-0.2-4.1-0.7
			c-1.2-0.4-2.2-1-3.1-1.6c-0.9-0.6-1.6-1.2-2.1-1.6c-0.4-0.3-0.7-0.5-1-0.5c-0.3,0-0.7,0.1-1,0.4c-0.5,0.4-0.9,0.8-1.2,1.3
			c-0.3,0.5-0.5,0.9-0.5,1.3c-0.1,0.5,0,0.9,0.2,1.2c0.2,0.4,0.6,0.8,1.1,1.3c0.4,0.4,1,0.7,1.8,1.1c0.8,0.4,1.6,0.7,2.6,1
			c1,0.3,2,0.4,3.2,0.4c1.3,0,2.7-0.2,4.2-0.6c1.5-0.4,2.9-1,4.4-1.7c1.5-0.7,2.9-1.6,4.2-2.6c2.3-1.8,3.9-3.7,5-5.7
			c1.1-2,1.6-4.1,1.6-6.2c0-1.5-0.3-3-0.9-4.4c-0.6-1.4-1.5-2.7-2.7-3.9c-1.2-1.1-2.7-2.1-4.4-2.7c-1.8-0.7-3.8-1-6.1-1.1
			c-0.7,0-1.5,0.1-2.4,0.3c-0.9,0.2-1.9,0.5-3,0.8c-1.1,0.3-2.1,0.7-3.1,1.1L242.2,323.5z M288.7,317c-2,0-3.8,0.4-5.4,1
			c-1.6,0.7-3,1.5-4.2,2.6c-1.2,1.1-2.1,2.4-2.7,3.8c-0.6,1.4-1,2.9-1,4.4c0,1.7,0.4,3.2,1,4.6c0.7,1.4,1.6,2.6,2.8,3.7
			c1.2,1.1,2.6,2,4.1,2.9c-0.8,0.5-1.7,1-2.5,1.5c-0.8,0.5-1.6,1.1-2.3,1.6c-0.7,0.5-1.2,0.9-1.6,1.3c-0.5,0.5-1,1-1.5,1.7
			c-0.5,0.6-0.9,1.3-1.2,2.2c-0.3,0.8-0.5,1.8-0.5,2.9c0,2.5,0.7,4.7,1.9,6.5c1.2,1.8,2.9,3.2,5,4.1c2.1,1,4.6,1.4,7.3,1.4
			c1.6,0,3.3-0.3,5-0.9c1.7-0.6,3.3-1.4,4.8-2.5c1.5-1.1,2.7-2.5,3.6-4.1c0.9-1.6,1.4-3.5,1.4-5.6c0-2.1-0.5-3.9-1.4-5.4
			c-0.9-1.5-2.1-2.8-3.5-4c-1.5-1.1-3-2.2-4.8-3.1c1.6-1,2.8-1.9,3.7-2.7c0.9-0.7,1.6-1.3,1.9-1.6c0.7-0.8,1.3-1.7,1.6-2.7
			c0.4-1,0.6-2,0.6-3c0-2-0.6-3.8-1.6-5.3c-1-1.6-2.4-2.9-4.2-3.8c-1.8-1-3.9-1.4-6.2-1.5H288.7z M287.9,319.4
			c1.1,0,2.2,0.3,3.3,0.9c1.1,0.6,2,1.5,2.7,2.8c0.7,1.3,1.1,2.9,1.1,5c0,1.4-0.2,2.6-0.6,3.7c-0.4,1.1-0.9,2-1.5,2.8
			c-0.6,0.8-1.3,1.5-2.1,2.1c-1.8-0.8-3.4-1.7-4.8-2.6c-1.4-0.9-2.6-1.9-3.4-3.1c-0.8-1.2-1.3-2.6-1.3-4.4c0-1.2,0.3-2.4,0.8-3.4
			c0.5-1.1,1.3-2,2.2-2.6C285.3,319.8,286.5,319.4,287.9,319.4L287.9,319.4z M288.7,360.7c-1.5,0-2.9-0.4-4.2-1.1
			c-1.3-0.8-2.4-1.9-3.2-3.4c-0.8-1.5-1.3-3.4-1.3-5.6c0-1.3,0.2-2.6,0.7-3.7c0.5-1.2,1.1-2.3,2-3.2c0.9-1,1.8-1.8,2.9-2.5
			c2,1,3.8,2,5.4,3c1.6,1,2.9,2.2,3.9,3.5c1,1.3,1.5,2.8,1.5,4.6c0,1.8-0.4,3.3-1,4.6c-0.7,1.3-1.6,2.3-2.8,2.9
			C291.4,360.3,290.1,360.7,288.7,360.7L288.7,360.7z M300.5,382.9c-0.3,0.2-0.7,0.3-1,0.5 M237.8,174.7
			c-1.4,23.8-1.1,43.6-0.8,67.2c0.2,10.8-1.9,18.6,8,12.6c1.7-1,3.8-2.1,5.8-3.5c10.8-7.2,24.4-15.7,30.5-26.2
			c2.3-3.9,3.2-8.6,1.5-14.7c-2.9-8.3-10.2-13.4-17.2-17.3c-1.7-0.9-3.5-1.8-5.1-2.6c-1.4-0.5-2.6-1-3.6-1.6c-6-2.8-6.5-7.2-5.8-9.8
			c4.3-9.4,10.7-12.4,20.9-11.2c5.2-7,12.2-8.6,22.5-4.6c9.9-7.2,28-1.1,35,5c3.1,2.4,3.6,5,2.3,8.9c-0.9,2.7-2.7,5.2-3.1,7.3
			c1.8-0.5,3.5-1.6,5.2-2.6c5-3.2,9.8-2.4,12.6,1.1c6.9,8.5,13.5,17.6,9.1,31.5c8.1,6,4.5,25.5-2,28.4c2.3,9-0.1,15-6.9,19.3
			c-4.6,1.4-11.7-7.3-15.8-12.1c-11.8-13.8-26.3-20.2-40.3-14.3c-3.3,1.4-20.5,11.1-29.4,18.4c-4.2,3.4-8.6,6.4-12.2,9.7
			c-2.8,2.6-5.2,5.2-6.9,7.6c-3,4.1-2.6,14.2-2.1,22.4h141.7c7.8-19,12.1-39.7,12.1-61.5c0-89.7-72.7-162.4-162.4-162.4
			C141.8,69.6,69,142.3,69,232c0,21.8,4.3,42.5,12.1,61.5h142.1c0.4-4.9,0.6-9.8,0.4-15.1c-0.7-15.1-39.4-37.2-51.5-42.3
			c-14-5.9-28.5,0.5-40.3,14.3c-4.1,4.8-11.2,13.5-15.8,12.1c-6.9-4.3-9.3-10.3-6.9-19.3c-6.4-2.9-9.5-23.5-2.7-29.7
			c-3.1-13.1,1.6-19.7,8.3-28.4c3.1-4,8.9-5.7,14.2-2.9c1.7,1.1,3.4,2.1,5.2,2.6c-0.4-2.1-2-4.6-3.1-7.3c-1.3-3.4-1.1-6.6,2.3-9.5
			c7-6.1,23.7-12.3,33-4.8c11.2-4.3,18.9-2.5,24.5,4.8c10.2-1.2,16.7,1.8,20.9,11.2c0.7,2.6,0.1,7-5.8,9.8
			c-9.9,6-21.4,9.1-25.8,21.5c-1.6,6.1-0.8,10.8,1.5,14.7c7.2,12.4,25.2,21.3,36.2,29.6c1,0.9,2,1.5,2.8,2c4.6,1.1,5.7-5.6,6.2-15.7
			c1.1-21.8,4.6-55-2.7-75.5c-2.9-8.2-10.5-12.3-21.3-15.2c-12.3-3.3-32.2-0.1-38.6-5.1c-3.4-1.5-3.6-6.2-2.7-8.6
			c0.6-1.6,1.5-2.4,4-4.7c1.8-1.6,1-5.6,5.8-7.1c3-1,2.5-2.6,3.5-5.3c1-2.4,3.6-5.6,7.3-6.9c4.9-1.7,3.3-3.8,7.7-7.7
			c1.9-1.1,7.2-3.6,9.7-3.5c5.9-3.3,10.6-4.9,16.1-4.3c0.9,0.1,1.8,0.7,2.9,0.9c6.1,0.7,5.2,6.9,6.9,11.4c0.3,0.9,0.7,2.1,1.2,2.9
			c1,1.6,0.8-1.4,1.4-4.7c0.5-2.7,1.7-5.5,2-6.5c0.3-1.1,0.9-1.6,1.9-2.1c0.9-0.5,0.5-1.3,1.1-2c3.3-3.7,6.7-1.6,8.5,0.1
			c1.3,0.6,2.3-1.3,3.6-1.8c2.7-1.2,6.8,0.1,9.2,1.3c2.2,1.2,4.4,3.6,6.8,4.1c2.1,0.2,6.4,0.7,7.3,2.5c1.2,2.5,2.8,4,4.7,6.1
			c1.9,2.1,4.5,1.6,7.2,2.1c1.5,0.2,2.1,1.9,3.7,2.4c0.3,0.1,3.5,4.4,3.7,5c0.6,1.7-0.7,4.2,1.8,4.7c0.4,0.2,2.3,1.1,2.6,1.3
			c0.4,0.3,1,1.6,1.5,1.7c0.8,0.2,2.8,5.6,2.8,6.5c1.6,2.6-1.2,5.9-2.7,8.1c-4.9,6.6-21.3,4.6-29.5,7.5
			C250.2,153.6,239.2,159.4,237.8,174.7z M231.5,66.1c91.6,0,165.9,74.3,165.9,165.9c0,24.9-5.5,48.6-15.4,69.8
			c-0.1,0.3-0.3,0.6-0.4,0.8c-0.3,0.7-0.7,1.5-1.1,2.2l-0.3,0.6c-0.7,1.5-1.5,3-2.3,4.5l-0.2,0.4c-0.4,0.7-0.8,1.4-1.1,2.1l-0.5,0.8
			c-0.4,0.7-0.8,1.4-1.2,2.1c-0.1,0.2-0.2,0.3-0.3,0.5c-0.8,1.4-1.6,2.7-2.5,4.1c-0.1,0.2-0.3,0.5-0.4,0.7c-0.4,0.7-0.8,1.3-1.3,2
			l-0.6,0.9c-1.4,2.1-2.8,4.1-4.3,6.1c-0.2,0.3-0.4,0.6-0.6,0.9c-0.4,0.6-0.9,1.2-1.3,1.8c-0.2,0.3-0.5,0.6-0.7,0.9
			c-1.5,1.9-3,3.9-4.6,5.7c-0.2,0.3-0.5,0.6-0.7,0.9c-0.5,0.5-0.9,1.1-1.4,1.6c-0.3,0.3-0.6,0.6-0.8,0.9c-0.9,1.1-1.9,2.1-2.9,3.1
			c-0.2,0.2-0.4,0.4-0.5,0.6c-0.5,0.5-1,1-1.5,1.5c-0.3,0.3-0.6,0.6-0.9,0.9c-0.5,0.5-1,1-1.5,1.5c-0.3,0.3-0.6,0.6-1,0.9
			c-0.8,0.8-1.7,1.6-2.6,2.4c-0.4,0.3-0.7,0.7-1.1,1c-0.5,0.4-0.9,0.9-1.4,1.3c-0.4,0.4-0.8,0.7-1.2,1.1c-0.5,0.4-0.9,0.8-1.4,1.2
			c-0.4,0.4-0.8,0.7-1.3,1.1c-0.8,0.7-1.6,1.3-2.4,2c-0.4,0.4-0.9,0.7-1.3,1.1c-0.5,0.4-1,0.8-1.4,1.1c-0.4,0.3-0.9,0.7-1.3,1
			c-0.5,0.4-1,0.7-1.4,1.1c-0.6,0.5-1.2,0.9-1.9,1.4c-0.6,0.5-1.3,0.9-1.9,1.4c-0.5,0.4-1,0.7-1.5,1.1c-0.5,0.3-0.9,0.6-1.4,1
			c-0.5,0.4-1.1,0.7-1.6,1.1c-0.4,0.3-0.9,0.6-1.3,0.9c-0.9,0.6-1.8,1.1-2.7,1.7c-0.4,0.3-0.9,0.5-1.3,0.8c-0.6,0.3-1.2,0.7-1.7,1
			c-0.5,0.3-0.9,0.5-1.4,0.8c-0.6,0.4-1.3,0.7-1.9,1.1c-0.4,0.2-0.8,0.4-1.2,0.7c-1,0.5-1.9,1-2.9,1.5c-0.4,0.2-0.8,0.4-1.2,0.6
			c-0.7,0.3-1.4,0.7-2,1c-0.4,0.2-0.9,0.4-1.3,0.6c-0.8,0.4-1.5,0.7-2.3,1.1c-0.3,0.2-0.7,0.3-1,0.5c-1,0.5-2,0.9-3.1,1.3
			c-0.4,0.2-0.8,0.3-1.2,0.5c-0.7,0.3-1.4,0.6-2.2,0.9c-0.4,0.2-0.8,0.3-1.2,0.5c-1,0.4-2,0.8-3,1.1l-0.7,0.3c-1,0.4-1.9,0.7-2.9,1
			c-0.4,0.1-0.8,0.3-1.2,0.4c-0.8,0.3-1.6,0.5-2.4,0.8c-0.4,0.1-0.7,0.2-1.1,0.4c-1.1,0.3-2.3,0.7-3.4,1c-0.3,0.1-0.5,0.1-0.8,0.2
			c-0.9,0.3-1.8,0.5-2.8,0.7c-0.4,0.1-0.8,0.2-1.2,0.3c-0.9,0.2-1.7,0.4-2.6,0.6c-0.3,0.1-0.7,0.2-1,0.2c-1.2,0.3-2.3,0.5-3.5,0.8
			c-0.3,0.1-0.6,0.1-0.9,0.2c-0.9,0.2-1.9,0.4-2.8,0.5c-0.4,0.1-0.8,0.1-1.2,0.2c-1,0.2-1.9,0.3-2.9,0.5c-0.3,0-0.5,0.1-0.8,0.1
			c-1.2,0.2-2.4,0.4-3.7,0.5c-0.3,0-0.6,0.1-1,0.1c-0.9,0.1-1.9,0.2-2.8,0.3c-0.4,0-0.8,0.1-1.2,0.1c-1.1,0.1-2.1,0.2-3.2,0.3
			c-0.2,0-0.4,0-0.6,0c-1.2,0.1-2.5,0.2-3.8,0.2c-0.4,0-0.7,0-1.1,0.1c-1,0-1.9,0.1-2.9,0.1c-0.4,0-0.7,0-1.1,0c-1.3,0-2.6,0-3.8,0
			h0c-1.3,0-2.6,0-3.9,0c-0.4,0-0.7,0-1.1,0c-1,0-1.9-0.1-2.9-0.1c-0.4,0-0.7,0-1.1-0.1c-1.3-0.1-2.5-0.1-3.8-0.2
			c-0.2,0-0.4,0-0.5,0c-1.1-0.1-2.2-0.2-3.2-0.3c-0.4,0-0.8-0.1-1.2-0.1c-0.9-0.1-1.9-0.2-2.8-0.3c-0.3,0-0.6-0.1-0.9-0.1
			c-1.2-0.2-2.5-0.3-3.7-0.5c-0.3,0-0.5-0.1-0.8-0.1c-1-0.2-2-0.3-3-0.5c-0.4-0.1-0.8-0.1-1.1-0.2c-1-0.2-1.9-0.4-2.9-0.5
			c-0.3-0.1-0.6-0.1-0.8-0.2c-1.2-0.2-2.4-0.5-3.5-0.8c-0.3-0.1-0.7-0.2-1-0.2c-0.9-0.2-1.8-0.4-2.7-0.6c-0.4-0.1-0.8-0.2-1.2-0.3
			c-1-0.2-1.9-0.5-2.9-0.8c-0.2-0.1-0.5-0.1-0.7-0.2c-1.1-0.3-2.3-0.7-3.4-1c-0.4-0.1-0.7-0.2-1.1-0.3c-0.8-0.3-1.6-0.5-2.5-0.8
			c-0.4-0.1-0.8-0.3-1.2-0.4c-1-0.3-2-0.7-3-1.1l-0.5-0.2c-1-0.4-2.1-0.8-3.1-1.2c-0.4-0.2-0.8-0.3-1.2-0.5
			c-0.7-0.3-1.5-0.6-2.2-0.9c-0.4-0.2-0.8-0.3-1.2-0.5c-1.1-0.4-2.1-0.9-3.1-1.4c-0.3-0.1-0.6-0.3-0.9-0.4c-0.8-0.4-1.6-0.7-2.4-1.1
			c-0.4-0.2-0.8-0.4-1.2-0.6c-0.7-0.3-1.4-0.7-2.1-1c-0.4-0.2-0.8-0.4-1.2-0.6c-1-0.5-2-1-3-1.6c-0.4-0.2-0.7-0.4-1.1-0.6
			c-0.7-0.4-1.3-0.7-2-1.1c-0.5-0.3-0.9-0.5-1.4-0.8c-0.6-0.4-1.2-0.7-1.8-1.1c-0.4-0.2-0.8-0.5-1.2-0.7c-0.9-0.6-1.8-1.1-2.7-1.7
			c-0.4-0.3-0.8-0.5-1.2-0.8c-0.6-0.4-1.2-0.8-1.7-1.1c-0.4-0.3-0.9-0.6-1.3-0.9c-0.6-0.4-1.1-0.8-1.7-1.2c-0.5-0.3-0.9-0.7-1.4-1
			c-0.8-0.6-1.6-1.1-2.3-1.7c-0.5-0.3-0.9-0.7-1.4-1c-0.5-0.4-0.9-0.7-1.4-1.1c-0.5-0.4-0.9-0.7-1.4-1.1c-0.5-0.4-1-0.8-1.5-1.2
			c-0.7-0.6-1.4-1.2-2.1-1.7c-0.5-0.4-1-0.8-1.4-1.2c-0.5-0.4-0.9-0.8-1.4-1.2c-0.4-0.4-0.8-0.7-1.2-1.1c-0.5-0.4-0.9-0.8-1.4-1.2
			c-0.4-0.4-0.8-0.7-1.2-1.1c-0.8-0.8-1.6-1.5-2.4-2.3c-0.3-0.3-0.7-0.7-1-1c-0.5-0.5-0.9-0.9-1.4-1.4c-0.3-0.3-0.7-0.7-1-1
			c-0.5-0.5-0.9-1-1.4-1.4c-0.3-0.3-0.6-0.7-0.9-1c-0.8-0.9-1.6-1.8-2.4-2.7c-0.3-0.3-0.6-0.7-0.9-1c-0.5-0.5-0.9-1-1.3-1.6
			c-0.3-0.3-0.6-0.7-0.9-1c-1.5-1.8-3-3.7-4.5-5.6c-0.2-0.3-0.5-0.6-0.7-1c-0.4-0.6-0.9-1.1-1.3-1.7c-0.2-0.3-0.5-0.6-0.7-0.9
			c-0.9-1.3-1.9-2.6-2.8-3.9l-0.1-0.2c-0.4-0.6-0.9-1.3-1.3-1.9c-0.2-0.3-0.4-0.6-0.6-0.9c-0.4-0.6-0.8-1.3-1.2-1.9
			c-0.2-0.3-0.3-0.5-0.5-0.8c-0.8-1.3-1.6-2.5-2.3-3.8c-0.1-0.2-0.3-0.4-0.4-0.6c-0.4-0.7-0.8-1.3-1.2-2l-0.5-0.9
			c-0.4-0.7-0.7-1.4-1.1-2c-0.1-0.2-0.2-0.4-0.3-0.6c-0.7-1.4-1.4-2.8-2.1-4.2c-0.1-0.2-0.2-0.5-0.4-0.7c-0.3-0.7-0.7-1.4-1-2.1
			l-0.4-0.9C71,280.6,65.5,257,65.5,232C65.5,140.4,139.8,66.1,231.5,66.1z"/>
	</g>
</g>
</svg>
