<?xml version="1.0" encoding="utf-8"?>
<!-- Generator: Adobe Illustrator 21.0.0, SVG Export Plug-In . SVG Version: 6.00 Build 0)  -->
<svg version="1.1" id="图层_1" xmlns="http://www.w3.org/2000/svg" xmlns:xlink="http://www.w3.org/1999/xlink" x="0px" y="0px"
	 viewBox="0 0 40 40" style="enable-background:new 0 0 40 40;" xml:space="preserve">
<style type="text/css">
	.st0{fill:#666666;}
</style>
<path class="st0" d="M35.9,20.8H4.1c-0.4,0-0.8-0.3-0.8-0.8V20c0-0.5,0.3-0.8,0.8-0.8h31.8c0.4,0,0.8,0.3,0.8,0.8V20
	C36.7,20.5,36.3,20.8,35.9,20.8z"/>
<path class="st0" d="M3.4,20L3.4,20c0-0.5,0.3-0.8,0.8-0.8h31.7c0.4,0,0.8,0.3,0.8,0.8v0.1c0,0.4-0.3,0.8-0.8,0.8H4.1
	C3.7,20.8,3.3,20.5,3.4,20z"/>
<path class="st0" d="M3.7,20.6L3.7,20.6c-0.4-0.3-0.4-0.8-0.1-1.2L14.3,8.8c0.3-0.3,0.8-0.3,1.1,0l0.1,0.1c0.3,0.3,0.3,0.8,0,1.1
	L4.8,20.6C4.4,20.9,3.9,20.9,3.7,20.6z"/>
<path class="st0" d="M3.7,19.4L3.7,19.4c-0.4,0.3-0.4,0.8-0.1,1.2l10.7,10.7c0.3,0.3,0.8,0.3,1.1,0l0.1-0.1c0.3-0.3,0.3-0.8,0-1.1
	L4.8,19.4C4.4,19.1,3.9,19.1,3.7,19.4z"/>
</svg>
